<svg width="96" height="48" viewBox="0 0 96 48" fill="none" xmlns="http://www.w3.org/2000/svg">
<path d="M2.86932 39V9.90909H13.7784C16.0133 9.90909 17.8883 10.3258 19.4034 11.1591C20.928 11.9924 22.0786 13.1383 22.8551 14.5966C23.6411 16.0455 24.0341 17.6932 24.0341 19.5398C24.0341 21.4053 23.6411 23.0625 22.8551 24.5114C22.0691 25.9602 20.9091 27.1013 19.375 27.9347C17.8409 28.7585 15.9517 29.1705 13.7074 29.1705H6.47727V24.8381H12.9972C14.304 24.8381 15.3741 24.6108 16.2074 24.1562C17.0407 23.7017 17.6563 23.0767 18.054 22.2812C18.4612 21.4858 18.6648 20.572 18.6648 19.5398C18.6648 18.5076 18.4612 17.5985 18.054 16.8125C17.6563 16.0265 17.036 15.4157 16.1932 14.9801C15.3598 14.535 14.285 14.3125 12.9688 14.3125H8.1392V39H2.86932Z" fill="black"/>
<path d="M48.642 39V17.1818H53.7841V39H48.642ZM51.2273 14.0852C50.4129 14.0852 49.7121 13.8153 49.125 13.2756C48.5379 12.7263 48.2443 12.0682 48.2443 11.3011C48.2443 10.5246 48.5379 9.86648 49.125 9.3267C49.7121 8.77746 50.4129 8.50284 51.2273 8.50284C52.0511 8.50284 52.7519 8.77746 53.3295 9.3267C53.9167 9.86648 54.2102 10.5246 54.2102 11.3011C54.2102 12.0682 53.9167 12.7263 53.3295 13.2756C52.7519 13.8153 52.0511 14.0852 51.2273 14.0852ZM64.2138 26.2159V39H59.0717V17.1818H63.9865V20.8892H64.2422C64.7441 19.6676 65.5443 18.697 66.6428 17.9773C67.7507 17.2576 69.1191 16.8977 70.7479 16.8977C72.2536 16.8977 73.5651 17.2197 74.6825 17.8636C75.8094 18.5076 76.6806 19.4403 77.2962 20.6619C77.9212 21.8835 78.2289 23.3655 78.2195 25.108V39H73.0774V25.9034C73.0774 24.4451 72.6986 23.304 71.9411 22.4801C71.1929 21.6562 70.156 21.2443 68.8303 21.2443C67.9306 21.2443 67.1304 21.4432 66.4297 21.8409C65.7384 22.2292 65.1939 22.7926 64.7962 23.5312C64.4079 24.2699 64.2138 25.1648 64.2138 26.2159ZM94.3416 17.1818V21.1591H81.799V17.1818H94.3416ZM84.8956 11.9545H90.0376V32.4375C90.0376 33.1288 90.1418 33.6591 90.3501 34.0284C90.5679 34.3883 90.852 34.6345 91.2024 34.767C91.5528 34.8996 91.9411 34.9659 92.3672 34.9659C92.6892 34.9659 92.9827 34.9422 93.2479 34.8949C93.5225 34.8475 93.7308 34.8049 93.8729 34.767L94.7393 38.7869C94.4647 38.8816 94.0717 38.9858 93.5604 39.0994C93.0585 39.2131 92.4429 39.2794 91.7138 39.2983C90.4259 39.3362 89.2659 39.142 88.2337 38.7159C87.2015 38.2803 86.3823 37.608 85.7763 36.6989C85.1797 35.7898 84.8861 34.6534 84.8956 33.2898V11.9545Z" fill="black"/>
<path d="M36 16.625C33.6305 16.6279 31.3589 17.5704 29.6834 19.2459C28.0079 20.9214 27.0654 23.193 27.0625 25.5625C27.0597 27.4989 27.6923 29.3827 28.8633 30.925C28.8633 30.925 29.107 31.2455 29.1462 31.292L36 39.375L42.8567 31.2885C42.8928 31.2452 43.1368 30.9247 43.1368 30.9247L43.138 30.9227C44.3082 29.381 44.9404 27.498 44.9375 25.5625C44.9346 23.193 43.9921 20.9214 42.3166 19.2459C40.6411 17.5704 38.3695 16.6279 36 16.625ZM36 28.8125C35.3572 28.8125 34.7289 28.6219 34.1944 28.2648C33.6599 27.9077 33.2434 27.4001 32.9974 26.8062C32.7514 26.2124 32.6871 25.5589 32.8125 24.9285C32.9379 24.298 33.2474 23.7189 33.7019 23.2644C34.1564 22.8099 34.7355 22.5003 35.366 22.3749C35.9964 22.2495 36.6499 22.3139 37.2437 22.5599C37.8376 22.8059 38.3452 23.2224 38.7023 23.7569C39.0594 24.2914 39.25 24.9197 39.25 25.5625C39.249 26.4242 38.9063 27.2502 38.297 27.8595C37.6878 28.4688 36.8617 28.8115 36 28.8125Z" fill="#FF0027"/>
</svg>
