<svg width="384" height="490" viewBox="0 0 384 490" fill="none" xmlns="http://www.w3.org/2000/svg">
<path d="M192 0.875C141.147 0.936835 92.3948 21.1654 56.4363 57.1239C20.4779 93.0823 0.249289 141.835 0.187454 192.688C0.127407 234.246 13.704 274.676 38.8342 307.775C38.8342 307.775 44.0654 314.654 44.9059 315.652L192 489.125L339.155 315.577C339.929 314.647 345.166 307.768 345.166 307.768L345.192 307.726C370.307 274.639 383.874 234.227 383.812 192.688C383.751 141.835 363.522 93.0823 327.564 57.1239C291.605 21.1654 242.853 0.936835 192 0.875ZM192 262.438C178.205 262.438 164.719 258.347 153.249 250.682C141.779 243.018 132.839 232.125 127.559 219.38C122.28 206.635 120.899 192.61 123.59 179.08C126.282 165.55 132.925 153.122 142.679 143.367C152.434 133.612 164.862 126.969 178.392 124.278C191.923 121.586 205.947 122.968 218.692 128.247C231.437 133.526 242.331 142.466 249.995 153.936C257.659 165.407 261.75 178.892 261.75 192.688C261.729 211.18 254.374 228.909 241.298 241.985C228.222 255.061 210.492 262.417 192 262.438Z" fill="#FF3232"/>
</svg>
